<mxfile host="65bd71144e">
    <diagram id="W4oG9ZekPhnmWvGLDY8r" name="Страница 1">
        <mxGraphModel dx="1462" dy="1198" grid="1" gridSize="10" guides="1" tooltips="1" connect="1" arrows="1" fold="1" page="1" pageScale="1" pageWidth="2000" pageHeight="2000" math="0" shadow="0">
            <root>
                <mxCell id="0"/>
                <mxCell id="1" parent="0"/>
                <mxCell id="43" value="Трудовой кодекс&lt;br&gt;РФ" style="endArrow=classic;html=1;labelBackgroundColor=default;" parent="1" edge="1">
                    <mxGeometry x="-0.6818" y="10" width="50" height="50" relative="1" as="geometry">
                        <mxPoint x="1000" y="290" as="sourcePoint"/>
                        <mxPoint x="1000" y="730" as="targetPoint"/>
                        <mxPoint y="-1" as="offset"/>
                    </mxGeometry>
                </mxCell>
                <mxCell id="38" value="Правила заполнения и хранения&lt;br&gt;трудовых книжек&amp;nbsp;" style="endArrow=classic;html=1;entryX=0.25;entryY=0;entryDx=0;entryDy=0;" parent="1" target="4" edge="1">
                    <mxGeometry x="-0.5294" width="50" height="50" relative="1" as="geometry">
                        <mxPoint x="820" y="290" as="sourcePoint"/>
                        <mxPoint x="880" y="320" as="targetPoint"/>
                        <mxPoint as="offset"/>
                    </mxGeometry>
                </mxCell>
                <mxCell id="39" value="Актуальная информация в трудовых книжках" style="edgeStyle=none;html=1;exitX=1;exitY=0.5;exitDx=0;exitDy=0;labelBackgroundColor=default;" parent="1" source="4" edge="1">
                    <mxGeometry relative="1" as="geometry">
                        <mxPoint x="1180" y="660" as="targetPoint"/>
                    </mxGeometry>
                </mxCell>
                <mxCell id="4" value="Ведение трудовой книжки сотрудников" style="rounded=0;whiteSpace=wrap;html=1;" parent="1" vertex="1">
                    <mxGeometry x="790" y="630" width="120" height="60" as="geometry"/>
                </mxCell>
                <mxCell id="33" value="Заполненные личные дела" style="edgeStyle=none;html=1;exitX=1.009;exitY=0.159;exitDx=0;exitDy=0;exitPerimeter=0;" parent="1" source="5" edge="1">
                    <mxGeometry relative="1" as="geometry">
                        <mxPoint x="1170" y="530" as="targetPoint"/>
                    </mxGeometry>
                </mxCell>
                <mxCell id="34" value="Информация о сотруднике" style="edgeStyle=none;html=1;entryX=0;entryY=0.5;entryDx=0;entryDy=0;exitX=0.992;exitY=0.38;exitDx=0;exitDy=0;exitPerimeter=0;" parent="1" source="5" target="4" edge="1">
                    <mxGeometry x="-0.6579" y="30" relative="1" as="geometry">
                        <Array as="points">
                            <mxPoint x="840" y="543"/>
                            <mxPoint x="840" y="590"/>
                            <mxPoint x="750" y="590"/>
                            <mxPoint x="750" y="660"/>
                        </Array>
                        <mxPoint as="offset"/>
                    </mxGeometry>
                </mxCell>
                <mxCell id="5" value="Оформление личных дел&amp;nbsp;" style="rounded=0;whiteSpace=wrap;html=1;" parent="1" vertex="1">
                    <mxGeometry x="670" y="520" width="120" height="60" as="geometry"/>
                </mxCell>
                <mxCell id="6" value="Процесс найма" style="rounded=0;whiteSpace=wrap;html=1;" parent="1" vertex="1">
                    <mxGeometry x="550" y="420" width="120" height="60" as="geometry"/>
                </mxCell>
                <mxCell id="30" value="Информация о нехватке кадров, связанная с увольнением сотрудников" style="edgeStyle=none;html=1;exitX=1;exitY=0.75;exitDx=0;exitDy=0;" parent="1" source="7" edge="1">
                    <mxGeometry relative="1" as="geometry">
                        <mxPoint x="570" y="420" as="targetPoint"/>
                        <Array as="points">
                            <mxPoint x="1220" y="780"/>
                            <mxPoint x="1220" y="1180"/>
                            <mxPoint x="450" y="1180"/>
                            <mxPoint x="450" y="360"/>
                            <mxPoint x="570" y="360"/>
                        </Array>
                    </mxGeometry>
                </mxCell>
                <mxCell id="7" value="Управление увольнениями и переводами" style="rounded=0;whiteSpace=wrap;html=1;" parent="1" vertex="1">
                    <mxGeometry x="910" y="735" width="120" height="60" as="geometry"/>
                </mxCell>
                <mxCell id="28" value="Информация о нехватке кадров, связанная с отпуском сотрудников" style="edgeStyle=none;html=1;exitX=1;exitY=0.75;exitDx=0;exitDy=0;entryX=0.057;entryY=-0.015;entryDx=0;entryDy=0;entryPerimeter=0;" parent="1" source="8" target="6" edge="1">
                    <mxGeometry x="-0.1191" relative="1" as="geometry">
                        <mxPoint x="1130" y="610" as="targetPoint"/>
                        <Array as="points">
                            <mxPoint x="1190" y="885"/>
                            <mxPoint x="1190" y="1150"/>
                            <mxPoint x="470" y="1150"/>
                            <mxPoint x="470" y="370"/>
                            <mxPoint x="557" y="370"/>
                        </Array>
                        <mxPoint as="offset"/>
                    </mxGeometry>
                </mxCell>
                <mxCell id="29" value="Информация о периоде отпуска" style="edgeStyle=none;html=1;entryX=0;entryY=0.25;entryDx=0;entryDy=0;exitX=1.012;exitY=0.155;exitDx=0;exitDy=0;exitPerimeter=0;" parent="1" source="8" target="4" edge="1">
                    <mxGeometry relative="1" as="geometry">
                        <Array as="points">
                            <mxPoint x="1200" y="850"/>
                            <mxPoint x="1200" y="600"/>
                            <mxPoint x="770" y="600"/>
                            <mxPoint x="770" y="645"/>
                        </Array>
                    </mxGeometry>
                </mxCell>
                <mxCell id="52" value="Распоряжение об отпуске" style="edgeStyle=none;jumpStyle=none;html=1;labelBackgroundColor=default;verticalAlign=bottom;labelPosition=right;verticalLabelPosition=top;align=left;" parent="1" source="8" edge="1">
                    <mxGeometry relative="1" as="geometry">
                        <mxPoint x="1310" y="870" as="targetPoint"/>
                    </mxGeometry>
                </mxCell>
                <mxCell id="8" value="Ведение учёта отпусков" style="rounded=0;whiteSpace=wrap;html=1;" parent="1" vertex="1">
                    <mxGeometry x="1030" y="840" width="120" height="60" as="geometry"/>
                </mxCell>
                <mxCell id="9" value="Запросы на найм от других подразделений" style="endArrow=classic;html=1;entryX=-0.01;entryY=0.135;entryDx=0;entryDy=0;entryPerimeter=0;labelPosition=left;verticalLabelPosition=middle;align=right;verticalAlign=middle;" parent="1" target="6" edge="1">
                    <mxGeometry width="50" height="50" relative="1" as="geometry">
                        <mxPoint x="370" y="430" as="sourcePoint"/>
                        <mxPoint x="510" y="460" as="targetPoint"/>
                    </mxGeometry>
                </mxCell>
                <mxCell id="10" value="Кандидаты на работу" style="endArrow=classic;html=1;entryX=-0.01;entryY=0.135;entryDx=0;entryDy=0;entryPerimeter=0;labelPosition=left;verticalLabelPosition=middle;align=right;verticalAlign=middle;" parent="1" edge="1">
                    <mxGeometry width="50" height="50" relative="1" as="geometry">
                        <mxPoint x="371.2" y="461.9" as="sourcePoint"/>
                        <mxPoint x="550" y="459.9999999999999" as="targetPoint"/>
                    </mxGeometry>
                </mxCell>
                <mxCell id="12" value="Запрос на найм сотрудника&lt;br&gt;в администрацию" style="endArrow=classic;html=1;labelPosition=center;verticalLabelPosition=top;align=center;verticalAlign=bottom;" parent="1" edge="1">
                    <mxGeometry width="50" height="50" relative="1" as="geometry">
                        <mxPoint x="670" y="430" as="sourcePoint"/>
                        <mxPoint x="1170" y="430" as="targetPoint"/>
                    </mxGeometry>
                </mxCell>
                <mxCell id="13" value="Требования к должностям&lt;br&gt;согласно политики компании" style="endArrow=classic;html=1;entryX=0.25;entryY=0;entryDx=0;entryDy=0;horizontal=1;verticalAlign=bottom;labelPosition=left;verticalLabelPosition=top;align=right;" parent="1" target="6" edge="1">
                    <mxGeometry x="-0.6923" y="-20" width="50" height="50" relative="1" as="geometry">
                        <mxPoint x="580" y="290" as="sourcePoint"/>
                        <mxPoint x="620" y="250" as="targetPoint"/>
                        <mxPoint as="offset"/>
                    </mxGeometry>
                </mxCell>
                <mxCell id="15" style="edgeStyle=none;html=1;entryX=0.5;entryY=1;entryDx=0;entryDy=0;" parent="1" target="6" edge="1">
                    <mxGeometry relative="1" as="geometry">
                        <mxPoint x="760.0000000000002" y="1070" as="sourcePoint"/>
                        <Array as="points">
                            <mxPoint x="760" y="1050"/>
                            <mxPoint x="610" y="1050"/>
                        </Array>
                    </mxGeometry>
                </mxCell>
                <mxCell id="16" style="edgeStyle=none;html=1;entryX=0.5;entryY=1;entryDx=0;entryDy=0;" parent="1" target="5" edge="1">
                    <mxGeometry relative="1" as="geometry">
                        <mxPoint x="760.0000000000002" y="1070" as="sourcePoint"/>
                        <Array as="points">
                            <mxPoint x="760" y="1050"/>
                            <mxPoint x="730" y="1050"/>
                        </Array>
                    </mxGeometry>
                </mxCell>
                <mxCell id="17" style="edgeStyle=none;html=1;entryX=0.5;entryY=1;entryDx=0;entryDy=0;" parent="1" target="4" edge="1">
                    <mxGeometry relative="1" as="geometry">
                        <mxPoint x="760.0000000000002" y="1070" as="sourcePoint"/>
                        <Array as="points">
                            <mxPoint x="760" y="1050"/>
                            <mxPoint x="850" y="1050"/>
                        </Array>
                    </mxGeometry>
                </mxCell>
                <mxCell id="18" style="edgeStyle=none;html=1;entryX=0.5;entryY=1;entryDx=0;entryDy=0;" parent="1" target="7" edge="1">
                    <mxGeometry relative="1" as="geometry">
                        <mxPoint x="760.0000000000002" y="1070" as="sourcePoint"/>
                        <Array as="points">
                            <mxPoint x="760" y="1050"/>
                            <mxPoint x="970" y="1050"/>
                        </Array>
                    </mxGeometry>
                </mxCell>
                <mxCell id="19" style="edgeStyle=none;html=1;entryX=0.5;entryY=1;entryDx=0;entryDy=0;" parent="1" source="35" target="8" edge="1">
                    <mxGeometry relative="1" as="geometry">
                        <mxPoint x="760.0000000000002" y="1070" as="sourcePoint"/>
                        <Array as="points">
                            <mxPoint x="760" y="1050"/>
                            <mxPoint x="1090" y="1050"/>
                        </Array>
                    </mxGeometry>
                </mxCell>
                <mxCell id="22" value="Информация о статистике найма, привлекательности компании для кандидатов.&lt;br&gt;Идёт в управление работы администрации" style="endArrow=classic;exitX=1;exitY=0.75;exitDx=0;exitDy=0;verticalAlign=middle;html=1;labelBackgroundColor=default;labelPosition=center;verticalLabelPosition=middle;align=center;" parent="1" source="6" edge="1">
                    <mxGeometry x="0.04" width="50" height="50" relative="1" as="geometry">
                        <mxPoint x="710" y="480" as="sourcePoint"/>
                        <mxPoint x="1170" y="465" as="targetPoint"/>
                        <mxPoint as="offset"/>
                    </mxGeometry>
                </mxCell>
                <mxCell id="23" value="Персональные данные сотрудника" style="endArrow=classic;html=1;entryX=-0.008;entryY=0.147;entryDx=0;entryDy=0;verticalAlign=middle;labelPosition=left;verticalLabelPosition=middle;align=right;entryPerimeter=0;" parent="1" target="5" edge="1">
                    <mxGeometry width="50" height="50" relative="1" as="geometry">
                        <mxPoint x="370" y="529" as="sourcePoint"/>
                        <mxPoint x="480" y="520" as="targetPoint"/>
                    </mxGeometry>
                </mxCell>
                <mxCell id="24" value="Документы, связанные с приёмом на работу" style="endArrow=classic;html=1;entryX=0;entryY=0.25;entryDx=0;entryDy=0;verticalAlign=middle;labelPosition=left;verticalLabelPosition=middle;align=right;" parent="1" edge="1">
                    <mxGeometry width="50" height="50" relative="1" as="geometry">
                        <mxPoint x="370" y="545" as="sourcePoint"/>
                        <mxPoint x="670" y="545" as="targetPoint"/>
                    </mxGeometry>
                </mxCell>
                <mxCell id="26" value="Документы, подтверждающие квалификацию и опыт работы" style="endArrow=classic;html=1;entryX=0;entryY=0.25;entryDx=0;entryDy=0;verticalAlign=middle;labelPosition=left;verticalLabelPosition=middle;align=right;" parent="1" edge="1">
                    <mxGeometry width="50" height="50" relative="1" as="geometry">
                        <mxPoint x="370" y="560" as="sourcePoint"/>
                        <mxPoint x="670" y="560" as="targetPoint"/>
                    </mxGeometry>
                </mxCell>
                <mxCell id="27" value="Соблюдение законодательства&lt;br&gt;о защите персональных данных" style="endArrow=classic;html=1;entryX=0.185;entryY=-0.058;entryDx=0;entryDy=0;entryPerimeter=0;labelPosition=center;verticalLabelPosition=top;align=center;verticalAlign=bottom;" parent="1" target="5" edge="1">
                    <mxGeometry x="-0.5918" y="10" width="50" height="50" relative="1" as="geometry">
                        <mxPoint x="690" y="290" as="sourcePoint"/>
                        <mxPoint x="800" y="450" as="targetPoint"/>
                        <mxPoint as="offset"/>
                    </mxGeometry>
                </mxCell>
                <mxCell id="31" value="Запрос на увольнение/перевод сотрудников&lt;br&gt;в администрацию" style="endArrow=classic;html=1;verticalAlign=bottom;" parent="1" edge="1">
                    <mxGeometry x="0.3333" y="10" width="50" height="50" relative="1" as="geometry">
                        <mxPoint x="1030" y="740" as="sourcePoint"/>
                        <mxPoint x="1180" y="740" as="targetPoint"/>
                        <mxPoint as="offset"/>
                    </mxGeometry>
                </mxCell>
                <mxCell id="35" value="Сотрудники отдела кадров" style="shape=umlActor;verticalLabelPosition=middle;verticalAlign=middle;html=1;outlineConnect=0;labelPosition=right;align=left;" parent="1" vertex="1">
                    <mxGeometry x="740" y="1060" width="30" height="60" as="geometry"/>
                </mxCell>
                <mxCell id="37" value="" style="shape=umlActor;verticalLabelPosition=bottom;verticalAlign=top;html=1;outlineConnect=0;" parent="1" vertex="1">
                    <mxGeometry x="320" y="450" width="30" height="40" as="geometry"/>
                </mxCell>
                <mxCell id="40" value="Запросы на отпуск от сотрудников" style="endArrow=classic;html=1;labelBackgroundColor=default;entryX=0;entryY=0.25;entryDx=0;entryDy=0;" parent="1" target="8" edge="1">
                    <mxGeometry width="50" height="50" relative="1" as="geometry">
                        <mxPoint x="480" y="855" as="sourcePoint"/>
                        <mxPoint x="560" y="880" as="targetPoint"/>
                    </mxGeometry>
                </mxCell>
                <mxCell id="41" value="Заявления на увольнение по собственному желанию" style="endArrow=classic;html=1;labelBackgroundColor=default;entryX=0;entryY=0.25;entryDx=0;entryDy=0;" parent="1" target="7" edge="1">
                    <mxGeometry width="50" height="50" relative="1" as="geometry">
                        <mxPoint x="490" y="750" as="sourcePoint"/>
                        <mxPoint x="570" y="720" as="targetPoint"/>
                    </mxGeometry>
                </mxCell>
                <mxCell id="42" value="План по сокращению кадров&lt;br&gt;от администрации" style="endArrow=classic;html=1;labelBackgroundColor=default;" parent="1" edge="1">
                    <mxGeometry x="-0.9091" width="50" height="50" relative="1" as="geometry">
                        <mxPoint x="930" y="290" as="sourcePoint"/>
                        <mxPoint x="930" y="730" as="targetPoint"/>
                        <mxPoint as="offset"/>
                    </mxGeometry>
                </mxCell>
                <mxCell id="45" value="Политика отпусков компании" style="endArrow=classic;html=1;labelBackgroundColor=default;jumpStyle=none;entryX=0.75;entryY=0;entryDx=0;entryDy=0;" parent="1" target="8" edge="1">
                    <mxGeometry x="-0.9636" width="50" height="50" relative="1" as="geometry">
                        <mxPoint x="1120" y="290" as="sourcePoint"/>
                        <mxPoint x="1160" y="290" as="targetPoint"/>
                        <mxPoint as="offset"/>
                    </mxGeometry>
                </mxCell>
                <mxCell id="46" value="" style="endArrow=classic;html=1;labelBackgroundColor=default;jumpStyle=none;entryX=0.426;entryY=-0.006;entryDx=0;entryDy=0;entryPerimeter=0;" parent="1" target="8" edge="1">
                    <mxGeometry width="50" height="50" relative="1" as="geometry">
                        <mxPoint x="1000" y="390" as="sourcePoint"/>
                        <mxPoint x="1110" y="340" as="targetPoint"/>
                        <Array as="points">
                            <mxPoint x="1080" y="390"/>
                        </Array>
                    </mxGeometry>
                </mxCell>
                <mxCell id="47" value="" style="endArrow=classic;html=1;labelBackgroundColor=default;jumpStyle=none;entryX=0.678;entryY=-0.022;entryDx=0;entryDy=0;entryPerimeter=0;" parent="1" source="48" target="6" edge="1">
                    <mxGeometry width="50" height="50" relative="1" as="geometry">
                        <mxPoint x="1000" y="390" as="sourcePoint"/>
                        <mxPoint x="680" y="330" as="targetPoint"/>
                        <Array as="points">
                            <mxPoint x="630" y="390"/>
                        </Array>
                    </mxGeometry>
                </mxCell>
                <mxCell id="48" value="" style="shape=waypoint;sketch=0;fillStyle=solid;size=6;pointerEvents=1;points=[];fillColor=none;resizable=0;rotatable=0;perimeter=centerPerimeter;snapToPoint=1;" parent="1" vertex="1">
                    <mxGeometry x="990" y="380" width="20" height="20" as="geometry"/>
                </mxCell>
                <mxCell id="53" value="&lt;h1&gt;Отдел Кадров&lt;/h1&gt;" style="text;html=1;strokeColor=none;fillColor=none;spacing=5;spacingTop=-20;whiteSpace=wrap;overflow=hidden;rounded=0;" parent="1" vertex="1">
                    <mxGeometry x="700" y="230" width="200" height="40" as="geometry"/>
                </mxCell>
            </root>
        </mxGraphModel>
    </diagram>
</mxfile>